<mxfile host="app.diagrams.net" modified="2024-02-23T16:20:02.461Z" agent="Mozilla/5.0 (X11; Linux x86_64; rv:123.0) Gecko/20100101 Firefox/123.0" etag="zza9yGHqWqd6Kn90Ev1s" version="23.1.6" type="device">
  <diagram name="Page-1" id="Hr3zOnQGrsAM1bCTbWln">
    <mxGraphModel dx="1430" dy="764" grid="1" gridSize="10" guides="1" tooltips="1" connect="1" arrows="1" fold="1" page="1" pageScale="1" pageWidth="1169" pageHeight="827" math="0" shadow="0">
      <root>
        <mxCell id="0" />
        <mxCell id="1" parent="0" />
        <mxCell id="LrbCtCbfYVjsp4iywWi_-8" style="edgeStyle=orthogonalEdgeStyle;rounded=0;orthogonalLoop=1;jettySize=auto;html=1;exitX=0;exitY=0.5;exitDx=0;exitDy=0;entryX=1;entryY=0.5;entryDx=0;entryDy=0;startArrow=classic;startFill=1;sketch=1;curveFitting=1;jiggle=2;curved=1;" edge="1" parent="1" source="LrbCtCbfYVjsp4iywWi_-1" target="LrbCtCbfYVjsp4iywWi_-3">
          <mxGeometry relative="1" as="geometry" />
        </mxCell>
        <mxCell id="LrbCtCbfYVjsp4iywWi_-14" style="edgeStyle=orthogonalEdgeStyle;rounded=0;sketch=1;hachureGap=4;jiggle=2;curveFitting=1;orthogonalLoop=1;jettySize=auto;html=1;exitX=1;exitY=0.5;exitDx=0;exitDy=0;" edge="1" parent="1" source="LrbCtCbfYVjsp4iywWi_-1" target="LrbCtCbfYVjsp4iywWi_-12">
          <mxGeometry relative="1" as="geometry" />
        </mxCell>
        <mxCell id="LrbCtCbfYVjsp4iywWi_-1" value="Syntax" style="rounded=0;whiteSpace=wrap;html=1;sketch=1;curveFitting=1;jiggle=2;fillColor=#ffe6cc;strokeColor=#d79b00;" vertex="1" parent="1">
          <mxGeometry x="760" y="300" width="120" height="60" as="geometry" />
        </mxCell>
        <mxCell id="LrbCtCbfYVjsp4iywWi_-15" style="edgeStyle=orthogonalEdgeStyle;rounded=0;sketch=1;hachureGap=4;jiggle=2;curveFitting=1;orthogonalLoop=1;jettySize=auto;html=1;exitX=1;exitY=0.5;exitDx=0;exitDy=0;entryX=0;entryY=0.5;entryDx=0;entryDy=0;" edge="1" parent="1" source="LrbCtCbfYVjsp4iywWi_-2" target="LrbCtCbfYVjsp4iywWi_-13">
          <mxGeometry relative="1" as="geometry" />
        </mxCell>
        <mxCell id="LrbCtCbfYVjsp4iywWi_-2" value="View" style="rounded=0;whiteSpace=wrap;html=1;sketch=1;curveFitting=1;jiggle=2;fillColor=#fff2cc;strokeColor=#d6b656;" vertex="1" parent="1">
          <mxGeometry x="760" y="160" width="120" height="60" as="geometry" />
        </mxCell>
        <mxCell id="LrbCtCbfYVjsp4iywWi_-3" value="Documents" style="rounded=0;whiteSpace=wrap;html=1;sketch=1;curveFitting=1;jiggle=2;fillColor=#dae8fc;strokeColor=#6c8ebf;" vertex="1" parent="1">
          <mxGeometry x="520" y="300" width="120" height="60" as="geometry" />
        </mxCell>
        <mxCell id="LrbCtCbfYVjsp4iywWi_-5" style="edgeStyle=orthogonalEdgeStyle;rounded=0;orthogonalLoop=1;jettySize=auto;html=1;exitX=1;exitY=0.5;exitDx=0;exitDy=0;entryX=0;entryY=0.5;entryDx=0;entryDy=0;sketch=1;curveFitting=1;jiggle=2;" edge="1" parent="1" source="LrbCtCbfYVjsp4iywWi_-4" target="LrbCtCbfYVjsp4iywWi_-2">
          <mxGeometry relative="1" as="geometry" />
        </mxCell>
        <mxCell id="LrbCtCbfYVjsp4iywWi_-6" style="edgeStyle=orthogonalEdgeStyle;rounded=0;orthogonalLoop=1;jettySize=auto;html=1;exitX=0.5;exitY=1;exitDx=0;exitDy=0;entryX=0.5;entryY=0;entryDx=0;entryDy=0;sketch=1;curveFitting=1;jiggle=2;" edge="1" parent="1" source="LrbCtCbfYVjsp4iywWi_-4" target="LrbCtCbfYVjsp4iywWi_-3">
          <mxGeometry relative="1" as="geometry" />
        </mxCell>
        <mxCell id="LrbCtCbfYVjsp4iywWi_-7" style="edgeStyle=orthogonalEdgeStyle;rounded=0;orthogonalLoop=1;jettySize=auto;html=1;exitX=0.5;exitY=1;exitDx=0;exitDy=0;entryX=0.5;entryY=0;entryDx=0;entryDy=0;sketch=1;curveFitting=1;jiggle=2;curved=1;" edge="1" parent="1" source="LrbCtCbfYVjsp4iywWi_-4" target="LrbCtCbfYVjsp4iywWi_-1">
          <mxGeometry relative="1" as="geometry" />
        </mxCell>
        <mxCell id="LrbCtCbfYVjsp4iywWi_-4" value="Modes" style="rounded=0;whiteSpace=wrap;html=1;sketch=1;curveFitting=1;jiggle=2;fillColor=#d5e8d4;strokeColor=#82b366;" vertex="1" parent="1">
          <mxGeometry x="520" y="160" width="120" height="60" as="geometry" />
        </mxCell>
        <mxCell id="LrbCtCbfYVjsp4iywWi_-10" value="Files" style="shape=cylinder3;whiteSpace=wrap;html=1;boundedLbl=1;backgroundOutline=1;size=15;sketch=1;hachureGap=4;jiggle=2;curveFitting=1;" vertex="1" parent="1">
          <mxGeometry x="340" y="290" width="60" height="80" as="geometry" />
        </mxCell>
        <mxCell id="LrbCtCbfYVjsp4iywWi_-11" style="edgeStyle=orthogonalEdgeStyle;rounded=0;sketch=1;hachureGap=4;jiggle=2;curveFitting=1;orthogonalLoop=1;jettySize=auto;html=1;exitX=0;exitY=0.5;exitDx=0;exitDy=0;entryX=1;entryY=0.5;entryDx=0;entryDy=0;entryPerimeter=0;" edge="1" parent="1" source="LrbCtCbfYVjsp4iywWi_-3" target="LrbCtCbfYVjsp4iywWi_-10">
          <mxGeometry relative="1" as="geometry" />
        </mxCell>
        <mxCell id="LrbCtCbfYVjsp4iywWi_-12" value="Pygments" style="rounded=0;whiteSpace=wrap;html=1;sketch=1;hachureGap=4;jiggle=2;curveFitting=1;" vertex="1" parent="1">
          <mxGeometry x="1000" y="300" width="120" height="60" as="geometry" />
        </mxCell>
        <mxCell id="LrbCtCbfYVjsp4iywWi_-13" value="Curses" style="rounded=0;whiteSpace=wrap;html=1;sketch=1;hachureGap=4;jiggle=2;curveFitting=1;" vertex="1" parent="1">
          <mxGeometry x="1000" y="160" width="120" height="60" as="geometry" />
        </mxCell>
      </root>
    </mxGraphModel>
  </diagram>
</mxfile>
